<mxfile host="app.diagrams.net" modified="2023-09-07T00:16:35.172Z" agent="Mozilla/5.0 (X11; Linux x86_64; rv:109.0) Gecko/20100101 Firefox/115.0" etag="v6URmt7Zrd1RC8OZAOAY" version="21.7.2" type="device">
  <diagram name="Page-1" id="C267cvMq3cxIo5fjZX8C">
    <mxGraphModel dx="1908" dy="1204" grid="1" gridSize="10" guides="1" tooltips="1" connect="1" arrows="1" fold="1" page="1" pageScale="1" pageWidth="850" pageHeight="1100" math="0" shadow="0">
      <root>
        <mxCell id="0" />
        <mxCell id="1" parent="0" />
        <mxCell id="q0nmSAfqa_ipUZ4Xmpp5-1" value="FIM" style="strokeWidth=2;html=1;shape=mxgraph.flowchart.terminator;whiteSpace=wrap;" vertex="1" parent="1">
          <mxGeometry x="465" y="635" width="100" height="60" as="geometry" />
        </mxCell>
        <mxCell id="q0nmSAfqa_ipUZ4Xmpp5-4" value="" style="edgeStyle=orthogonalEdgeStyle;rounded=0;orthogonalLoop=1;jettySize=auto;html=1;" edge="1" parent="1" source="q0nmSAfqa_ipUZ4Xmpp5-2" target="q0nmSAfqa_ipUZ4Xmpp5-3">
          <mxGeometry relative="1" as="geometry" />
        </mxCell>
        <mxCell id="q0nmSAfqa_ipUZ4Xmpp5-2" value="INICIO" style="strokeWidth=2;html=1;shape=mxgraph.flowchart.terminator;whiteSpace=wrap;" vertex="1" parent="1">
          <mxGeometry x="135" y="380" width="100" height="60" as="geometry" />
        </mxCell>
        <mxCell id="q0nmSAfqa_ipUZ4Xmpp5-6" style="edgeStyle=orthogonalEdgeStyle;rounded=0;orthogonalLoop=1;jettySize=auto;html=1;entryX=0;entryY=0.5;entryDx=0;entryDy=0;" edge="1" parent="1" source="q0nmSAfqa_ipUZ4Xmpp5-3" target="q0nmSAfqa_ipUZ4Xmpp5-5">
          <mxGeometry relative="1" as="geometry" />
        </mxCell>
        <mxCell id="q0nmSAfqa_ipUZ4Xmpp5-3" value="DECLARE salario_minimo, salario_informado, resultado" style="rounded=0;whiteSpace=wrap;html=1;" vertex="1" parent="1">
          <mxGeometry x="125" y="490" width="120" height="80" as="geometry" />
        </mxCell>
        <mxCell id="q0nmSAfqa_ipUZ4Xmpp5-10" value="" style="edgeStyle=orthogonalEdgeStyle;rounded=0;orthogonalLoop=1;jettySize=auto;html=1;" edge="1" parent="1" source="q0nmSAfqa_ipUZ4Xmpp5-5" target="q0nmSAfqa_ipUZ4Xmpp5-7">
          <mxGeometry relative="1" as="geometry" />
        </mxCell>
        <mxCell id="q0nmSAfqa_ipUZ4Xmpp5-5" value="&quot;Informe o salário mínimo atual&quot;" style="shape=document;whiteSpace=wrap;html=1;boundedLbl=1;" vertex="1" parent="1">
          <mxGeometry x="295" y="380" width="120" height="80" as="geometry" />
        </mxCell>
        <mxCell id="q0nmSAfqa_ipUZ4Xmpp5-12" style="edgeStyle=orthogonalEdgeStyle;rounded=0;orthogonalLoop=1;jettySize=auto;html=1;entryX=0;entryY=0.5;entryDx=0;entryDy=0;" edge="1" parent="1" source="q0nmSAfqa_ipUZ4Xmpp5-7" target="q0nmSAfqa_ipUZ4Xmpp5-8">
          <mxGeometry relative="1" as="geometry" />
        </mxCell>
        <mxCell id="q0nmSAfqa_ipUZ4Xmpp5-7" value="&lt;div&gt;LEIA&amp;nbsp;&lt;/div&gt;&lt;div&gt;salario_minimo&lt;/div&gt;" style="shape=parallelogram;perimeter=parallelogramPerimeter;whiteSpace=wrap;html=1;fixedSize=1;" vertex="1" parent="1">
          <mxGeometry x="295" y="510" width="120" height="60" as="geometry" />
        </mxCell>
        <mxCell id="q0nmSAfqa_ipUZ4Xmpp5-11" value="" style="edgeStyle=orthogonalEdgeStyle;rounded=0;orthogonalLoop=1;jettySize=auto;html=1;" edge="1" parent="1" source="q0nmSAfqa_ipUZ4Xmpp5-8" target="q0nmSAfqa_ipUZ4Xmpp5-9">
          <mxGeometry relative="1" as="geometry" />
        </mxCell>
        <mxCell id="q0nmSAfqa_ipUZ4Xmpp5-8" value="&quot;Informe o salário atual&quot;" style="shape=document;whiteSpace=wrap;html=1;boundedLbl=1;" vertex="1" parent="1">
          <mxGeometry x="455" y="380" width="120" height="80" as="geometry" />
        </mxCell>
        <mxCell id="q0nmSAfqa_ipUZ4Xmpp5-14" value="" style="edgeStyle=orthogonalEdgeStyle;rounded=0;orthogonalLoop=1;jettySize=auto;html=1;" edge="1" parent="1" source="q0nmSAfqa_ipUZ4Xmpp5-9" target="q0nmSAfqa_ipUZ4Xmpp5-13">
          <mxGeometry relative="1" as="geometry" />
        </mxCell>
        <mxCell id="q0nmSAfqa_ipUZ4Xmpp5-9" value="&lt;div&gt;LEIA&lt;/div&gt;&lt;div&gt;salario_informado&lt;br&gt;&lt;/div&gt;" style="shape=parallelogram;perimeter=parallelogramPerimeter;whiteSpace=wrap;html=1;fixedSize=1;" vertex="1" parent="1">
          <mxGeometry x="455" y="510" width="120" height="60" as="geometry" />
        </mxCell>
        <mxCell id="q0nmSAfqa_ipUZ4Xmpp5-17" value="" style="edgeStyle=orthogonalEdgeStyle;rounded=0;orthogonalLoop=1;jettySize=auto;html=1;" edge="1" parent="1" source="q0nmSAfqa_ipUZ4Xmpp5-13" target="q0nmSAfqa_ipUZ4Xmpp5-16">
          <mxGeometry relative="1" as="geometry" />
        </mxCell>
        <mxCell id="q0nmSAfqa_ipUZ4Xmpp5-13" value="&lt;div&gt;resultado = salario_atual / salario_informado&lt;br&gt;&lt;/div&gt;" style="rounded=0;whiteSpace=wrap;html=1;" vertex="1" parent="1">
          <mxGeometry x="605" y="510" width="120" height="60" as="geometry" />
        </mxCell>
        <mxCell id="q0nmSAfqa_ipUZ4Xmpp5-18" value="" style="edgeStyle=orthogonalEdgeStyle;rounded=0;orthogonalLoop=1;jettySize=auto;html=1;" edge="1" parent="1" source="q0nmSAfqa_ipUZ4Xmpp5-16" target="q0nmSAfqa_ipUZ4Xmpp5-1">
          <mxGeometry relative="1" as="geometry" />
        </mxCell>
        <mxCell id="q0nmSAfqa_ipUZ4Xmpp5-16" value="&quot;A quantidade de salarios minimos recebidos é {resultado}&quot;" style="shape=document;whiteSpace=wrap;html=1;boundedLbl=1;size=0.18181818181818182;" vertex="1" parent="1">
          <mxGeometry x="605" y="610" width="120" height="110" as="geometry" />
        </mxCell>
      </root>
    </mxGraphModel>
  </diagram>
</mxfile>
